<svg width="31" height="27" viewBox="0 0 31 27" fill="none" xmlns="http://www.w3.org/2000/svg">
<path d="M30.324 19.676C30.324 22.076 29.544 23.888 27.984 25.112C26.424 26.312 24.336 26.912 21.72 26.912H9.156C6.492 26.912 4.404 26.324 2.892 25.148C1.356 23.948 0.587999 22.124 0.587999 19.676C0.587999 17.252 1.356 15.452 2.892 14.276C4.404 13.076 6.492 12.476 9.156 12.476H21.72C24.36 12.476 26.46 13.076 28.02 14.276C29.556 15.476 30.324 17.276 30.324 19.676ZM27.156 19.676C27.156 17.468 25.356 16.364 21.756 16.364L9.12 16.364C7.464 16.364 6.156 16.604 5.196 17.084C4.212 17.54 3.72 18.404 3.72 19.676C3.72 20.948 4.212 21.824 5.196 22.304C6.156 22.784 7.464 23.024 9.12 23.024L21.756 23.024C25.356 23.024 27.156 21.908 27.156 19.676ZM5.88 4.24634C5.952 4.29434 6.12 5.02634 6.384 6.44234C6.648 7.83434 6.828 8.79434 6.924 9.32234L4.008 9.32234C3.312 6.39434 2.256 4.39034 0.839998 3.31034V0.394343L30 0.394343V4.24634L5.88 4.24634Z" fill="#5A0D67"/>
</svg>
