<svg width="31" height="33" viewBox="0 0 31 33" fill="none" xmlns="http://www.w3.org/2000/svg">
<path d="M30.324 25.676C30.324 28.076 29.544 29.888 27.984 31.112C26.424 32.312 24.336 32.912 21.72 32.912H9.156C6.492 32.912 4.404 32.324 2.892 31.148C1.356 29.948 0.587999 28.124 0.587999 25.676C0.587999 23.252 1.356 21.452 2.892 20.276C4.404 19.076 6.492 18.476 9.156 18.476H21.72C24.36 18.476 26.46 19.076 28.02 20.276C29.556 21.476 30.324 23.276 30.324 25.676ZM27.156 25.676C27.156 23.468 25.356 22.364 21.756 22.364L9.12 22.364C7.464 22.364 6.156 22.604 5.196 23.084C4.212 23.54 3.72 24.404 3.72 25.676C3.72 26.948 4.212 27.824 5.196 28.304C6.156 28.784 7.464 29.024 9.12 29.024L21.756 29.024C25.356 29.024 27.156 27.908 27.156 25.676ZM30.324 7.83434C30.324 10.1623 29.676 11.9383 28.38 13.1623C27.06 14.3623 25.212 14.9623 22.836 14.9623H21.864V11.1463H22.512C24 11.0983 25.14 10.8463 25.932 10.3903C26.724 9.91034 27.12 9.05834 27.12 7.83434C27.12 6.53834 26.676 5.66234 25.788 5.20634C24.876 4.72634 23.532 4.48634 21.756 4.48634C20.124 4.48634 18.852 4.78634 17.94 5.38634C17.004 5.98634 16.488 6.95834 16.392 8.30234C16.368 8.39834 16.356 8.57834 16.356 8.84234H12.504V8.33834C12.456 6.97034 12.096 5.98634 11.424 5.38634C10.752 4.78634 9.636 4.48634 8.076 4.48634C6.636 4.48634 5.556 4.72634 4.836 5.20634C4.092 5.68634 3.72 6.55034 3.72 7.79834C3.72 9.04634 4.116 9.91034 4.908 10.3903C5.7 10.8463 6.864 11.0983 8.4 11.1463H9.012V14.9623H8.04C5.664 14.9623 3.828 14.3623 2.532 13.1623C1.236 11.9383 0.587999 10.1503 0.587999 7.79834C0.587999 5.44634 1.248 3.67034 2.568 2.47034C3.864 1.24634 5.7 0.634343 8.076 0.634343C9.78 0.634343 11.172 1.00634 12.252 1.75034C13.332 2.49434 14.064 3.51434 14.448 4.81034C14.856 3.49034 15.684 2.47034 16.932 1.75034C18.18 1.00634 19.788 0.634343 21.756 0.634343C24.468 0.634343 26.58 1.22234 28.092 2.39834C29.58 3.55034 30.324 5.36234 30.324 7.83434Z" fill="#C4C4C4"/>
</svg>
