<svg width="31" height="34" viewBox="0 0 31 34" fill="none" xmlns="http://www.w3.org/2000/svg">
<path d="M30.324 26.676C30.324 29.076 29.544 30.888 27.984 32.112C26.424 33.312 24.336 33.912 21.72 33.912H9.156C6.492 33.912 4.404 33.324 2.892 32.148C1.356 30.948 0.587999 29.124 0.587999 26.676C0.587999 24.252 1.356 22.452 2.892 21.276C4.404 20.076 6.492 19.476 9.156 19.476H21.72C24.36 19.476 26.46 20.076 28.02 21.276C29.556 22.476 30.324 24.276 30.324 26.676ZM27.156 26.676C27.156 24.468 25.356 23.364 21.756 23.364L9.12 23.364C7.464 23.364 6.156 23.604 5.196 24.084C4.212 24.54 3.72 25.404 3.72 26.676C3.72 27.948 4.212 28.824 5.196 29.304C6.156 29.784 7.464 30.024 9.12 30.024L21.756 30.024C25.356 30.024 27.156 28.908 27.156 26.676ZM22.188 7.50234V15.9623H18.156L0.839998 8.36634L0.839998 3.83034H18.768V0.554343H22.188V3.83034L30 3.83034V7.50234H22.188ZM18.768 7.50234L5.52 7.50234L18.768 12.2543V7.50234Z" fill="#C4C4C4"/>
</svg>
