<svg width="31" height="33" viewBox="0 0 31 33" fill="none" xmlns="http://www.w3.org/2000/svg">
<path d="M30.324 25.676C30.324 28.076 29.544 29.888 27.984 31.112C26.424 32.312 24.336 32.912 21.72 32.912H9.156C6.492 32.912 4.404 32.324 2.892 31.148C1.356 29.948 0.587999 28.124 0.587999 25.676C0.587999 23.252 1.356 21.452 2.892 20.276C4.404 19.076 6.492 18.476 9.156 18.476H21.72C24.36 18.476 26.46 19.076 28.02 20.276C29.556 21.476 30.324 23.276 30.324 25.676ZM27.156 25.676C27.156 23.468 25.356 22.364 21.756 22.364L9.12 22.364C7.464 22.364 6.156 22.604 5.196 23.084C4.212 23.54 3.72 24.404 3.72 25.676C3.72 26.948 4.212 27.824 5.196 28.304C6.156 28.784 7.464 29.024 9.12 29.024L21.756 29.024C25.356 29.024 27.156 27.908 27.156 25.676ZM30.288 7.65434C30.288 10.1743 29.58 11.9863 28.164 13.0903C26.724 14.1703 24.612 14.7103 21.828 14.7103V10.8583C23.46 10.8583 24.768 10.6423 25.752 10.2103C26.736 9.75434 27.228 8.87834 27.228 7.58234C27.228 6.59834 26.94 5.86634 26.364 5.38634C25.788 4.90634 25.032 4.60634 24.096 4.48634C23.136 4.34234 21.864 4.27034 20.28 4.27034C18.816 4.27034 17.652 4.35434 16.788 4.52234C15.9 4.66634 15.228 4.97834 14.772 5.45834C14.292 5.91434 14.052 6.61034 14.052 7.54634C14.052 8.29034 14.28 8.95034 14.736 9.52634C15.192 10.0783 15.768 10.4983 16.464 10.7863V14.0623L0.839998 14.0623L0.839998 1.49834H4.692V10.5703L12.756 10.8223C11.676 9.79034 11.136 8.38634 11.136 6.61034C11.136 4.37834 11.904 2.79434 13.44 1.85834C14.952 0.898343 17.064 0.418342 19.776 0.418342C23.088 0.418342 25.668 0.958343 27.516 2.03834C29.364 3.11834 30.288 4.99034 30.288 7.65434Z" fill="#C4C4C4"/>
</svg>
