<svg width="31" height="34" viewBox="0 0 31 34" fill="none" xmlns="http://www.w3.org/2000/svg">
<path d="M30.324 26.676C30.324 29.076 29.544 30.888 27.984 32.112C26.424 33.312 24.336 33.912 21.72 33.912H9.156C6.492 33.912 4.404 33.324 2.892 32.148C1.356 30.948 0.587999 29.124 0.587999 26.676C0.587999 24.252 1.356 22.452 2.892 21.276C4.404 20.076 6.492 19.476 9.156 19.476H21.72C24.36 19.476 26.46 20.076 28.02 21.276C29.556 22.476 30.324 24.276 30.324 26.676ZM27.156 26.676C27.156 24.468 25.356 23.364 21.756 23.364L9.12 23.364C7.464 23.364 6.156 23.604 5.196 24.084C4.212 24.54 3.72 25.404 3.72 26.676C3.72 27.948 4.212 28.824 5.196 29.304C6.156 29.784 7.464 30.024 9.12 30.024L21.756 30.024C25.356 30.024 27.156 28.908 27.156 26.676ZM30.324 8.15034C30.324 10.5503 29.448 12.3503 27.696 13.5503C25.92 14.7263 23.604 15.3143 20.748 15.3143H10.92C7.776 15.3143 5.268 14.7623 3.396 13.6583C1.524 12.5543 0.587999 10.7183 0.587999 8.15034C0.587999 5.89434 1.2 4.15434 2.424 2.93034C3.648 1.70634 5.4 1.07034 7.68 1.02234L8.112 0.986343V4.87434C6.624 4.87434 5.532 5.11434 4.836 5.59434C4.116 6.07434 3.756 6.92634 3.756 8.15034C3.756 10.3583 5.832 11.4623 9.984 11.4623H14.412C13.788 11.0783 13.296 10.5263 12.936 9.80634C12.576 9.06234 12.396 8.19834 12.396 7.21434C12.396 4.93434 13.128 3.31434 14.592 2.35434C16.032 1.39434 18.108 0.914343 20.82 0.914343C23.676 0.914343 25.98 1.50234 27.732 2.67834C29.46 3.85434 30.324 5.67834 30.324 8.15034ZM27.12 8.15034C27.12 6.95034 26.628 6.09834 25.644 5.59434C24.66 5.06634 23.364 4.80234 21.756 4.80234C20.292 4.80234 19.128 4.86234 18.264 4.98234C17.4 5.10234 16.692 5.40234 16.14 5.88234C15.588 6.36234 15.312 7.11834 15.312 8.15034C15.312 8.89434 15.504 9.55434 15.888 10.1303C16.272 10.6823 16.74 11.1263 17.292 11.4623H21.648C23.304 11.4623 24.636 11.2103 25.644 10.7063C26.628 10.1783 27.12 9.32634 27.12 8.15034Z" fill="#C4C4C4"/>
</svg>
